# xmcd
#
# Track frame offsets: 
#        150
#        20242
#        36303
#        61346
#        85817
#        104289
#        121254
#        140489
#
# Disc length: 2359 seconds
#
# Revision: 0
# Processed by: cddbd v1.5.2PL0 Copyright (c) Steve Scherf et al.
# Submitted via: ExactAudioCopy v0.99pb3
#
DISCID=6b093508
DTITLE=John Crews - Hearts for Eyes
DYEAR=1994
DGENRE=Blues
TTITLE0=By My Side
TTITLE1=Slap Rita
TTITLE2=Palm of Your Hand
TTITLE3=With a Little Love
TTITLE4=Blow Wind Blow
TTITLE5=Love Her With a Feeling
TTITLE6=You Gotta Do What You Gotta Do
TTITLE7=Hearts For Eyes
EXTD=
EXTT0=
EXTT1=
EXTT2=
EXTT3=
EXTT4=
EXTT5=
EXTT6=
EXTT7=
PLAYORDER=
